<svg width="512" height="512" viewBox="0 0 512 512" fill="none" xmlns="http://www.w3.org/2000/svg">
<g clip-path="url(#clip0_56_2034)">
<path d="M476.475 300.433C476.475 309.412 472.839 317.533 466.96 323.412C461.071 329.291 452.95 332.927 443.981 332.927H68.0174C50.0784 332.927 35.5234 318.382 35.5234 300.433C35.5234 295.625 36.5634 291.07 38.4324 286.969C40.0584 283.403 42.3014 280.192 45.0384 277.454C50.9274 271.575 59.0484 267.939 68.0174 267.939H443.982C457.123 267.939 468.446 275.737 473.567 286.969C475.435 291.07 476.475 295.625 476.475 300.433Z" fill="#884D00"/>
<path d="M473.568 286.969C471.942 290.524 469.689 293.746 466.962 296.474C461.073 302.353 452.952 305.989 443.983 305.989H68.0186C54.8876 305.989 43.5646 298.191 38.4336 286.97C40.0596 283.404 42.3026 280.193 45.0396 277.455C50.9286 271.576 59.0496 267.94 68.0186 267.94H443.984C457.124 267.939 468.447 275.737 473.568 286.969Z" fill="#AA6100"/>
<path d="M504.424 359.158C504.424 401.025 485.041 432.135 453.709 452.77C422.367 473.416 379.076 483.587 331.259 483.587H180.739C85.1062 483.587 7.57422 442.892 7.57422 359.158C7.57422 354.492 8.73622 350.067 10.8362 346.088C12.6142 342.694 15.0682 339.634 18.0482 337.028C24.5122 331.362 33.4622 327.857 43.3302 327.857H468.667C483.081 327.857 495.504 335.331 501.161 346.089C503.262 350.067 504.424 354.491 504.424 359.158Z" fill="#FFA733"/>
<path d="M501.162 346.088C494.415 373.966 477.506 395.682 453.709 411.358C422.367 432.004 379.076 442.175 331.259 442.175H180.74C96.6019 442.175 26.4829 410.681 10.8379 346.088C12.6159 342.694 15.0699 339.634 18.0499 337.028C24.5139 331.362 33.4639 327.857 43.3319 327.857H468.669C483.082 327.856 495.506 335.33 501.162 346.088Z" fill="#FFB655"/>
<path d="M394.173 254.303L310.116 338.36C308.005 340.461 305.753 342.319 303.369 343.925C285.572 355.975 261.189 354.127 245.422 338.36L161.365 254.303H394.173Z" fill="#EEBF00"/>
<path d="M394.173 254.303L310.116 338.36C308.005 340.461 305.753 342.319 303.369 343.925C296.955 341.743 290.935 338.097 285.824 332.976L207.15 254.302H394.173V254.303Z" fill="#FFD422"/>
<path d="M494.991 266.03C494.991 270.434 494.264 274.939 492.688 279.333C486.517 296.555 469.992 303.242 457.114 293.727L441.67 282.322C430.893 274.353 417.146 277.615 409.348 289.998L408.691 291.038C401.206 302.937 388.156 306.473 377.5 299.503L342.916 276.887C334.937 271.675 325.371 272.241 317.816 278.392L290.1 300.938C282.141 307.412 272 307.686 263.828 301.635L232.213 278.202C224.133 272.212 214.113 272.404 206.184 278.707L177.397 301.565C169.67 307.696 159.953 308.05 151.964 302.504L114.693 276.606C107.36 271.515 98.5223 271.374 91.0883 276.232L56.3223 298.968C33.1713 301.948 21.9093 284.948 21.9093 284.948C16.3643 275.312 15.8083 263.888 18.8083 254.303C22.3743 242.849 31.0103 234.021 42.2413 234.021H469.77C480.78 234.021 489.577 242.718 493.193 254.253C494.364 257.95 494.991 261.939 494.991 266.03Z" fill="#6DC82A"/>
<path d="M493.194 254.253C493.042 254.758 492.871 255.253 492.689 255.758C486.518 272.99 469.993 279.676 457.115 270.161L441.671 258.747C430.894 250.788 417.147 254.05 409.349 266.423L408.692 267.473C401.207 279.372 388.157 282.908 377.501 275.938L342.917 253.322C334.938 248.1 325.372 248.676 317.817 254.827L290.101 277.373C282.142 283.848 272.001 284.11 263.829 278.06L232.214 254.627C224.134 248.637 214.114 248.839 206.185 255.132L177.398 278C169.671 284.121 159.954 284.485 151.965 278.939L114.694 253.041C107.361 247.94 98.5226 247.799 91.0886 252.667L56.3226 275.393C33.1716 278.383 21.9096 261.373 21.9096 261.373C20.6066 259.1 19.5766 256.727 18.8086 254.303C22.3746 242.849 31.0106 234.021 42.2416 234.021H469.771C480.78 234.021 489.578 242.718 493.194 254.253Z" fill="#7ED63E"/>
<path d="M486.366 213.234C486.437 216.597 485.992 219.84 485.124 222.9C481.215 236.516 468.67 246.475 453.802 246.475C395.42 246.475 239.922 245.162 216.468 245.94C215.943 245.96 215.418 245.98 214.902 245.991C185.287 247.112 178.54 251.859 178.54 267.647V325.412C178.54 328.382 177.338 331.078 175.389 333.028C173.44 334.977 170.753 336.179 167.783 336.179C161.834 336.179 157.016 340.997 157.016 346.946V372.107C157.016 374.662 156.713 377.137 156.127 379.521C152.804 393.278 140.39 403.49 125.482 403.49H124.684C107.735 403.49 94.0187 389.723 94.0687 372.774L94.2097 327.23C94.2197 323.735 95.6437 320.564 97.9367 318.281C100.24 315.988 103.401 314.574 106.906 314.574C113.916 314.574 119.602 308.887 119.602 301.878V267.647C119.602 255.95 110.128 246.476 98.4307 246.476H58.8167C40.9888 246.476 25.9897 232.406 25.6257 214.578C25.2617 196.286 39.9887 181.337 58.1997 181.337H453.154C470.992 181.336 486.012 195.407 486.366 213.234Z" fill="#FF3501"/>
<path d="M486.366 213.234C486.437 216.597 485.992 219.84 485.124 222.9C423.318 222.839 275.637 221.617 252.83 222.365C221.882 223.385 214.902 228.021 214.902 244.081V245.99C185.287 247.111 178.54 251.858 178.54 267.646V325.411C178.54 328.381 177.338 331.077 175.389 333.027C173.44 334.976 170.753 336.178 167.783 336.178C161.834 336.178 157.016 340.996 157.016 346.945V372.106C157.016 374.661 156.713 377.136 156.127 379.52C141.522 377.167 130.381 364.47 130.431 349.198L130.572 303.664C130.582 300.159 132.006 296.998 134.299 294.715C136.602 292.422 139.763 291.008 143.268 291.008C150.278 291.008 155.964 285.321 155.964 278.312V244.081C155.964 232.384 146.49 222.91 134.793 222.91H95.1788C77.3508 222.91 62.3518 208.84 61.9878 191.012C61.9168 187.648 62.3618 184.406 63.2398 181.336H453.154C470.992 181.336 486.012 195.407 486.366 213.234Z" fill="#FF5023"/>
<path d="M300.028 148.227L227.96 220.325C220.738 227.547 212.223 232.688 203.153 235.728C180.79 243.283 155.094 238.142 137.297 220.325L65.1992 148.227H300.028Z" fill="#EEBF00"/>
<path d="M300.03 148.227L227.962 220.325C220.74 227.547 212.225 232.688 203.155 235.728C194.095 232.688 185.58 227.546 178.368 220.325L106.27 148.227H300.03Z" fill="#FFD422"/>
<path d="M504.425 158.368C504.425 158.903 504.405 159.429 504.375 159.954C503.981 166.732 501.072 172.842 496.567 177.347C491.709 182.205 485.002 185.205 477.588 185.205H34.4132C19.5952 185.205 7.57617 173.185 7.57617 158.368C7.57617 126.208 22.4852 101.996 44.9992 83.7847C63.2702 68.9967 86.5622 58.1596 110.945 50.2096C179.165 27.9986 256 28.4126 256 28.4126C256 28.4126 504.425 27.0696 504.425 158.368Z" fill="#FFA733"/>
<path d="M504.425 158.368C504.425 158.903 504.405 159.429 504.375 159.954H88.9561C74.1381 159.954 62.1191 147.934 62.1191 133.117C62.1191 100.957 77.0281 76.7447 99.5421 58.5336C103.158 55.6046 106.966 52.8366 110.946 50.2106C179.165 27.9986 256 28.4126 256 28.4126C256 28.4126 504.425 27.0696 504.425 158.368Z" fill="#FFB655"/>
<path d="M389.527 75.3633C393.835 79.9223 393.631 87.1103 389.072 91.4183C384.513 95.7263 377.325 95.5223 373.017 90.9633C368.709 86.4053 360.78 70.6093 365.34 66.3013C369.9 61.9943 385.219 70.8033 389.527 75.3633Z" fill="#FFF5CC"/>
<path d="M329.328 131.491C331.576 137.346 328.652 143.916 322.797 146.164C316.942 148.412 310.372 145.488 308.124 139.633C305.876 133.778 304.554 116.154 310.41 113.906C316.265 111.658 327.08 125.636 329.328 131.491Z" fill="#FFF5CC"/>
<path d="M267.357 84.78C267.357 91.052 262.272 96.137 256 96.137C249.728 96.137 244.643 91.052 244.643 84.78C244.643 78.508 249.728 61.582 256 61.582C262.272 61.582 267.357 78.507 267.357 84.78Z" fill="#FFF5CC"/>
<path d="M204.912 138.608C203.343 144.68 197.149 148.333 191.076 146.764C185.004 145.195 181.351 139.001 182.92 132.928C184.489 126.856 193.644 111.739 199.717 113.308C205.79 114.875 206.48 132.535 204.912 138.608Z" fill="#FFF5CC"/>
<path d="M142.431 89.1385C139.697 94.7825 132.904 97.1425 127.259 94.4075C121.615 91.6735 119.255 84.8805 121.99 79.2355C124.724 73.5915 136.679 60.5745 142.325 63.3095C147.969 66.0445 145.166 83.4945 142.431 89.1385Z" fill="#FFF5CC"/>
<path d="M502.706 381.47C498.666 380.44 494.535 382.884 493.494 386.934C479.252 442.71 418.598 476.011 331.248 476.011H180.739C137.357 476.011 99.3182 467.526 70.7132 451.467C67.0672 449.427 62.4512 450.72 60.4002 454.366C58.3602 458.012 59.6532 462.628 63.2992 464.679C94.1562 482.002 134.771 491.163 180.739 491.163H331.249C407.47 491.163 489.315 464.53 508.181 390.682C509.211 386.631 506.767 382.51 502.706 381.47Z" fill="black"/>
<path d="M285.514 294.904C285.523 294.896 285.521 294.899 285.522 294.898C285.519 294.9 285.516 294.902 285.514 294.904Z" fill="black"/>
<path d="M478.195 321.247C481.693 315.524 483.801 308.863 484.031 301.746C506.275 288.899 509.215 251.053 488.748 233.698C495.919 221.081 496.013 204.636 486.92 191.498C501.374 187.417 512 174.105 512 158.368C512 71.6019 412.865 37.8109 326.442 26.0799C322.301 25.5139 318.473 28.4129 317.907 32.5649C317.351 36.7059 320.25 40.5239 324.402 41.0899C400.938 51.4839 496.85 80.7979 496.85 158.368C496.85 168.984 488.204 177.63 477.588 177.63C70.958 177.63 441.054 177.63 34.414 177.63C23.798 177.63 15.152 168.984 15.152 158.368C15.152 108.643 53.797 73.0079 130.016 52.4529C170.514 41.5299 220.767 36.0869 256.294 35.9889C257.95 35.9889 273.031 36.0399 294.585 37.8369C298.777 38.1799 302.413 35.0799 302.767 30.9179C303.11 26.7459 300.01 23.0799 295.848 22.7369C282.753 21.6469 268.904 20.9029 255.708 20.8379C189.656 20.8379 92.021 36.0079 40.232 77.8959C13.535 99.4909 0 126.571 0 158.368C0 174.044 10.545 187.306 24.908 191.447C16.515 203.815 15.619 220.242 23.322 233.577C9.197 245.576 4.591 270.025 15.343 288.726C17.313 291.928 22.141 296.918 27.949 300.483C27.966 308.08 30.105 315.184 33.802 321.24C14.483 325.149 0 340.663 0 359.158C0 394.187 12.565 423.428 37.332 446.074C38.776 447.397 40.615 448.054 42.433 448.054C49.317 448.054 52.64 439.544 47.554 434.893C26.06 415.237 15.151 389.753 15.151 359.159C15.151 346.079 27.797 335.433 43.332 335.433H86.603L86.492 372.745C86.429 393.983 103.593 411.067 124.682 411.067H125.48C147.045 411.067 164.59 393.593 164.59 372.109V346.948C164.59 345.18 166.024 343.756 167.782 343.756C174.196 343.756 179.852 340.443 183.125 335.433H230.426C234.911 338.746 247.994 359.321 276.414 359.321C304.767 359.321 317.944 338.733 322.412 335.433H468.669C484.052 335.433 496.698 345.968 496.85 358.927C496.89 363.078 500.274 366.412 504.415 366.412H504.506C508.688 366.372 512.041 362.937 512.001 358.756C511.783 340.477 497.319 325.143 478.195 321.247ZM266.202 192.78H466.78C488.836 206.379 478.236 238.364 453.801 238.364C291.009 238.364 441.115 237.944 216.203 238.364C231.391 230.289 236.114 221.837 266.202 192.78ZM28.312 280.888C21.294 268.358 24.898 252.1 33.221 245.061C40.251 250.667 49.17 254.051 58.816 254.051H98.43C105.632 254.051 111.541 259.677 111.995 266.768C108.945 265.677 105.783 265.132 102.612 265.132C91.199 265.132 86.531 270.161 53.705 291.626C42.555 292.528 33.269 287.545 28.312 280.888ZM87.885 320.28H52.997C48.505 316.873 45.194 311.989 43.817 306.351C47.861 306.986 57.035 307.544 60.473 305.301L95.239 282.575C104.165 276.73 111.342 283.717 112.026 283.979V301.877C112.026 304.705 109.733 306.998 106.905 306.998C98.198 306.998 90.744 312.533 87.885 320.28ZM170.963 296.837C170.963 311.711 170.963 299.997 170.963 325.412C170.963 327.17 169.539 328.604 167.781 328.604C157.633 328.604 149.438 336.88 149.438 346.947V372.108C149.438 393.707 122.817 403.629 108.359 389.138C100.456 381.198 101.651 371.108 101.643 372.341C101.677 361.345 101.717 348.62 101.783 327.252C101.793 324.444 104.086 322.151 106.904 322.151C117.999 322.151 127.176 313.137 127.176 301.879C127.176 286.956 127.176 282.577 127.176 267.648C127.176 256.133 120.368 246.174 110.56 241.599C101.006 237.097 95.343 239.631 58.815 238.902C33.397 238.902 23.528 206.239 44.846 192.783H99.036L131.934 225.681C144.662 238.419 161.339 245.775 179.207 246.607C167.979 255.665 171.625 268.203 170.963 296.837ZM142.651 214.971L120.46 192.78H244.788L222.607 214.971C200.451 237.107 164.701 237.041 142.651 214.971ZM186.114 320.28V304.311L193.467 298.473L215.274 320.28H186.114ZM300.746 335.431C285.744 347.891 263.473 347.053 249.425 333.007C238.499 322.08 216.323 299.905 205.407 288.989C208.101 287.649 216.652 276.091 227.709 284.282L259.324 307.715C270.096 315.723 284.093 315.589 294.878 306.816L322.594 284.271C327.624 280.18 333.523 279.796 338.775 283.231L348.037 289.281C295.797 340.418 302.189 334.243 300.746 335.431ZM459.011 320.28H337.562L360.44 297.402L369.884 303.573C371.611 304.356 380.935 313.062 394.893 309.997C408.823 306.954 415.481 294.338 415.761 294.028C420.839 285.963 429.516 282.752 437.174 288.412C449.649 296.651 455.714 305.008 468.355 305.634C467.092 311.579 463.691 316.732 459.011 320.28ZM461.618 287.635C445.5 275.732 446.137 276.172 445.225 275.545C431.301 266.036 413.111 269.863 402.934 285.959C402.673 286.262 398.882 293.62 391.672 295.191C384.999 296.661 384.263 294.89 347.058 270.556C336.25 263.486 323.221 264.233 313.039 272.516C297.206 285.394 285.471 294.936 285.764 294.701C285.543 294.881 285.62 294.818 285.602 294.832C285.666 294.779 285.628 294.811 285.564 294.863C285.55 294.874 285.534 294.887 285.519 294.9C285.512 294.906 285.506 294.911 285.499 294.916C285.504 294.912 285.509 294.908 285.514 294.904C285.503 294.913 285.491 294.923 285.479 294.933C285.423 294.978 285.337 295.049 285.323 295.059C280.061 299.342 273.707 299.523 268.344 295.544C236.77 272.141 232.025 266.357 219.73 266.272C209.326 266.198 202.769 271.307 194.63 278.211L186.115 284.968V267.645C186.115 247.593 190.419 254.05 453.801 254.05C463.063 254.05 471.831 250.939 478.931 245.222C486.332 251.616 489.837 264.875 485.567 276.766C481.481 288.156 471.003 294.557 461.618 287.635Z" fill="black"/>
<path d="M360.139 60.795C355.641 65.043 355.187 71.93 358.788 81.264C363.053 92.322 369.49 102.095 381.288 102.095C397.719 102.095 406.472 82.263 395.034 70.16C395.034 70.159 395.034 70.159 395.034 70.159C390.733 65.606 370.303 51.187 360.139 60.795ZM381.167 86.942C380.582 86.925 379.462 86.75 378.526 85.759C376.269 83.369 373.328 77.478 372.106 73.458C376.049 74.906 381.765 78.174 384.024 80.564C386.326 83.004 384.533 87.023 381.167 86.942Z" fill="black"/>
<path d="M301.054 142.35C302.867 147.071 306.409 150.803 311.029 152.86C326.301 159.655 342.468 144.565 336.401 128.775V128.776C334.156 122.929 320.758 101.82 307.695 106.834C294.635 111.85 298.808 136.503 301.054 142.35ZM313.941 123.099C317.036 125.939 321.077 131.137 322.257 134.207V134.208C323.004 136.154 322.034 138.342 320.081 139.093C318.124 139.843 315.943 138.86 315.196 136.919C314.018 133.849 313.542 127.282 313.941 123.099Z" fill="black"/>
<path d="M237.066 84.7799C237.066 95.2199 245.559 103.713 255.999 103.713C266.439 103.713 274.932 95.2199 274.932 84.7799C274.932 78.5169 269.99 54.0059 255.999 54.0059C242.008 54.0059 237.066 78.5149 237.066 84.7799ZM255.999 88.5609C253.914 88.5609 252.217 86.8639 252.217 84.7789C252.217 81.4909 254.127 75.1889 255.999 71.4279C257.872 75.1889 259.781 81.4909 259.781 84.7789C259.781 86.8639 258.084 88.5609 255.999 88.5609Z" fill="black"/>
<path d="M183.561 115.717C176.67 124.942 171.736 135.42 177.607 145.381C186.16 159.893 208.054 156.734 212.247 140.5C213.814 134.435 215.159 109.471 201.612 105.97C195.622 104.426 189.549 107.703 183.561 115.717ZM197.578 136.713C197.516 136.814 197.306 138.16 195.837 139.026C192.932 140.741 189.42 138.059 190.256 134.822C191.078 131.639 194.503 126.014 197.256 122.842C198.128 126.951 198.4 133.529 197.578 136.713Z" fill="black"/>
<path d="M115.174 75.9337C109.082 88.5107 118.319 103.119 132.181 103.119C139.215 103.119 145.983 99.1847 149.25 92.4417C152.551 85.6297 157.613 62.3007 145.629 56.4947C133.891 50.8047 118.687 68.6807 115.174 75.9337ZM135.616 85.8347C134.706 87.7117 132.44 88.4977 130.565 87.5897C128.688 86.6807 127.901 84.4127 128.81 82.5367C130.243 79.5787 134.71 74.7387 138.034 72.1707C138.077 76.3717 137.049 82.8767 135.616 85.8347Z" fill="black"/>
</g>
<defs>
<clipPath id="clip0_56_2034">
<rect width="512" height="512" fill="white"/>
</clipPath>
</defs>
</svg>
