<svg width="512" height="512" viewBox="0 0 512 512" fill="none" xmlns="http://www.w3.org/2000/svg">
<g clip-path="url(#clip0_56_2318)">
<path d="M284.219 292.483C258.617 242.761 294.715 183.571 350.641 183.571C351.905 183.571 353.155 183.612 354.398 183.671V53.8711H63.7305V356.345C63.7305 361.963 68.2845 366.517 73.9025 366.517H131.475C131.557 350.885 144.251 338.237 159.902 338.237C175.553 338.237 188.248 350.885 188.329 366.517H322.338L284.219 292.483Z" fill="#FFB655"/>
<path d="M106.001 356.345V53.8711H63.7305V356.345C63.7305 361.963 68.2845 366.517 73.9025 366.517H116.173C110.555 366.518 106.001 361.963 106.001 356.345Z" fill="#FFA733"/>
<path d="M344.226 7.5H73.9025C68.2845 7.5 63.7305 12.054 63.7305 17.672V53.871H354.398V17.672C354.398 12.054 349.844 7.5 344.226 7.5Z" fill="#4FC123"/>
<path d="M116.173 7.5H73.9025C68.2845 7.5 63.7305 12.054 63.7305 17.672V53.871H106.001V17.672C106.001 12.054 110.555 7.5 116.173 7.5Z" fill="#47A920"/>
<path d="M201.071 181.531C201.071 158.843 214.353 139.201 233.548 129.967V91.4493C233.548 88.4553 231.121 86.0283 228.127 86.0283H111.036C108.042 86.0283 105.615 88.4553 105.615 91.4493V186.416C105.615 189.41 108.042 191.837 111.036 191.837H202.019C201.407 188.492 201.071 185.051 201.071 181.531Z" fill="#FFD422"/>
<path d="M139.068 186.417V91.4493C139.068 88.4553 141.495 86.0283 144.489 86.0283H111.036C108.042 86.0283 105.615 88.4553 105.615 91.4493V186.416C105.615 189.41 108.042 191.837 111.036 191.837H144.489C141.495 191.838 139.068 189.411 139.068 186.417Z" fill="#FFD422"/>
<path d="M184.326 127.017H154.837C153.041 127.017 151.584 125.561 151.584 123.764V86.0293H187.578V123.765C187.579 125.561 186.123 127.017 184.326 127.017Z" fill="#EEBF00"/>
<path d="M314.296 192.907C315.041 189.229 315.436 185.426 315.436 181.532C315.436 150.001 289.784 124.349 258.253 124.349C226.722 124.349 201.07 150.001 201.07 181.532C201.07 213.063 226.722 238.715 258.253 238.715C265.871 238.715 273.14 237.205 279.793 234.489C285.707 217.074 297.928 202.035 314.296 192.907Z" fill="#4FC123"/>
<path d="M235 181.532C235 155.906 251.945 134.163 275.218 126.918C269.856 125.249 264.158 124.349 258.253 124.349C226.722 124.349 201.07 150.001 201.07 181.532C201.07 213.063 226.722 238.715 258.253 238.715C264.157 238.715 269.856 237.815 275.218 236.146C251.944 228.901 235 207.158 235 181.532Z" fill="#47A920"/>
<path d="M471.509 504.501C487.211 504.501 499.94 491.772 499.94 476.07C499.94 460.368 487.211 447.639 471.509 447.639C455.807 447.639 443.078 460.368 443.078 476.07C443.078 491.772 455.807 504.501 471.509 504.501Z" fill="#FFD422"/>
<path d="M468.155 476.07C468.155 464.869 474.635 455.185 484.048 450.551C480.265 448.689 476.011 447.638 471.509 447.638C455.807 447.638 443.078 460.367 443.078 476.069C443.078 491.771 455.807 504.5 471.509 504.5C476.01 504.5 480.265 503.45 484.048 501.587C474.634 496.954 468.155 487.271 468.155 476.07Z" fill="#EEBF00"/>
<path d="M40.4915 504.501C56.1936 504.501 68.9225 491.772 68.9225 476.07C68.9225 460.368 56.1936 447.639 40.4915 447.639C24.7895 447.639 12.0605 460.368 12.0605 476.07C12.0605 491.772 24.7895 504.501 40.4915 504.501Z" fill="#FFD422"/>
<path d="M37.1375 476.07C37.1375 464.869 43.6175 455.185 53.0305 450.551C49.2475 448.689 44.9935 447.638 40.4915 447.638C24.7895 447.638 12.0605 460.367 12.0605 476.069C12.0605 491.771 24.7895 504.501 40.4915 504.501C44.9925 504.501 49.2475 503.451 53.0305 501.588C43.6175 496.954 37.1375 487.271 37.1375 476.07Z" fill="#EEBF00"/>
<path d="M256.001 474.708C271.703 474.708 284.432 461.979 284.432 446.277C284.432 430.575 271.703 417.846 256.001 417.846C240.299 417.846 227.57 430.575 227.57 446.277C227.57 461.979 240.299 474.708 256.001 474.708Z" fill="#FFD422"/>
<path d="M252.647 446.277C252.647 435.076 259.127 425.392 268.54 420.758C264.757 418.896 260.503 417.845 256.001 417.845C240.299 417.845 227.57 430.574 227.57 446.276C227.57 461.978 240.299 474.707 256.001 474.707C260.502 474.707 264.757 473.657 268.54 471.794C259.127 467.162 252.647 457.478 252.647 446.277Z" fill="#EEBF00"/>
<path d="M159.902 395.1C175.604 395.1 188.333 382.371 188.333 366.669C188.333 350.967 175.604 338.238 159.902 338.238C144.2 338.238 131.471 350.967 131.471 366.669C131.471 382.371 144.2 395.1 159.902 395.1Z" fill="#FF5023"/>
<path d="M157.001 366.668C157.001 355.558 163.378 345.942 172.668 341.265C168.829 339.332 164.495 338.237 159.904 338.237C144.202 338.237 131.473 350.966 131.473 366.668C131.473 382.37 144.201 395.1 159.903 395.1C164.495 395.1 168.828 394.005 172.667 392.072C163.378 387.394 157.001 377.779 157.001 366.668Z" fill="#FF3501"/>
<path d="M355.461 412.121L417.064 292.483C442.666 242.761 406.568 183.571 350.642 183.571C294.716 183.571 258.618 242.761 284.22 292.483L345.823 412.121C347.84 416.04 353.443 416.04 355.461 412.121Z" fill="#FF5023"/>
<path d="M326.388 292.483C304.178 249.35 328.406 199.1 371.725 186.538C365.108 184.619 358.05 183.571 350.64 183.571C294.714 183.571 258.616 242.761 284.218 292.483L345.821 412.12C347.839 416.039 353.442 416.039 355.46 412.12L371.726 380.531L326.388 292.483Z" fill="#FF3501"/>
<path d="M350.641 306.263C375.339 306.263 395.36 286.242 395.36 261.544C395.36 236.847 375.339 216.825 350.641 216.825C325.943 216.825 305.922 236.847 305.922 261.544C305.922 286.242 325.943 306.263 350.641 306.263Z" fill="#EEBF00"/>
<path d="M350.641 283.169C362.584 283.169 372.266 273.487 372.266 261.544C372.266 249.601 362.584 239.919 350.641 239.919C338.697 239.919 329.016 249.601 329.016 261.544C329.016 273.487 338.697 283.169 350.641 283.169Z" fill="#FFD422"/>
<path d="M105.615 244.522H183.578C187.72 244.522 191.078 241.165 191.078 237.022C191.078 232.879 187.72 229.522 183.578 229.522H105.615C101.473 229.522 98.1152 232.879 98.1152 237.022C98.1152 241.165 101.473 244.522 105.615 244.522Z" fill="black"/>
<path d="M294.198 181.531C294.198 177.388 290.841 174.031 286.698 174.031H265.754V145.521C265.754 141.378 262.397 138.021 258.254 138.021C254.112 138.021 250.754 141.378 250.754 145.521V181.531C250.754 185.674 254.112 189.031 258.254 189.031H286.698C290.841 189.031 294.198 185.674 294.198 181.531Z" fill="black"/>
<path d="M471.51 440.138C463.607 440.138 456.297 442.708 450.358 447.049L379.656 381.516L396.75 348.317C398.646 344.634 397.198 340.112 393.516 338.215C389.834 336.319 385.311 337.767 383.414 341.449L350.641 405.098L290.886 289.05C280.07 268.044 280.956 243.459 293.259 223.287C305.562 203.114 327.013 191.071 350.641 191.071C374.269 191.071 395.719 203.114 408.022 223.287C420.325 243.459 421.211 268.044 410.395 289.05L399.44 310.326C397.544 314.009 398.992 318.531 402.674 320.428C406.357 322.324 410.88 320.876 412.776 317.194L423.731 295.918C436.961 270.224 435.877 240.152 420.829 215.478C407.762 194.053 386.256 180.132 361.898 176.835V110C361.898 105.857 358.541 102.5 354.398 102.5C350.255 102.5 346.898 105.857 346.898 110V176.164C338.579 176.532 330.518 178.123 322.919 180.822C322.536 145.482 293.683 116.847 258.253 116.847C252.295 116.847 246.53 117.673 241.047 119.188V91.448C241.047 84.323 235.251 78.527 228.126 78.527H111.036C103.911 78.527 98.1145 84.323 98.1145 91.448V186.416C98.1145 193.541 103.911 199.337 111.036 199.337H143.001C147.143 199.337 150.501 195.98 150.501 191.837C150.501 187.694 147.143 184.337 143.001 184.337H113.115V93.527H144.085V123.763C144.085 129.692 148.909 134.516 154.837 134.516H184.326C190.255 134.516 195.078 129.692 195.078 123.763V93.528H226.047V125.471C206.659 136.653 193.57 157.585 193.57 181.531C193.57 182.472 193.601 183.406 193.641 184.338H178.001C173.859 184.338 170.501 187.695 170.501 191.838C170.501 195.981 173.859 199.338 178.001 199.338H196.084C203.839 226.369 228.764 246.214 258.254 246.214C262.054 246.214 265.775 245.873 269.397 245.241C268.494 250.801 268.18 256.43 268.444 262.048H105.615C101.473 262.048 98.1145 265.405 98.1145 269.548C98.1145 273.691 101.473 277.048 105.615 277.048H270.563C271.983 283.024 274.089 288.899 276.885 294.573H105.615C101.473 294.573 98.1145 297.93 98.1145 302.073C98.1145 306.216 101.473 309.573 105.615 309.573H284.582L310.041 359.017H195.006C191.489 342.869 177.09 330.737 159.903 330.737C142.716 330.737 128.317 342.869 124.8 359.017H73.9016C72.4286 359.017 71.2295 357.819 71.2295 356.345V61.371H346.898V75C346.898 79.143 350.255 82.5 354.398 82.5C358.541 82.5 361.898 79.143 361.898 75V17.672C361.898 7.928 353.97 0 344.226 0H73.9016C64.1576 0 56.2295 7.928 56.2295 17.672V356.346C56.2295 366.09 64.1576 374.018 73.9016 374.018H124.73C125.53 377.851 126.948 381.459 128.866 384.74L61.6425 447.048C55.7035 442.708 48.3935 440.138 40.4915 440.138C20.6795 440.138 4.56055 456.256 4.56055 476.069C4.56055 495.882 20.6785 512 40.4915 512C60.3045 512 76.4225 495.881 76.4225 476.068C76.4225 469.574 74.6825 463.483 71.6565 458.22L138.961 395.837C144.862 400.086 152.093 402.599 159.904 402.599C168.558 402.599 176.507 399.523 182.717 394.408L223.107 431.845C221.16 436.265 220.071 441.145 220.071 446.276C220.071 466.088 236.19 482.207 256.002 482.207C275.814 482.207 291.934 466.089 291.934 446.276C291.934 441.144 290.845 436.265 288.898 431.844L328.596 395.048L339.155 415.555C341.381 419.875 345.783 422.56 350.642 422.56C355.502 422.56 359.905 419.875 362.13 415.554L372.528 395.36L440.346 458.22C437.32 463.483 435.58 469.574 435.58 476.068C435.58 495.88 451.699 512 471.512 512C491.325 512 507.444 495.881 507.444 476.068C507.444 456.255 491.322 440.138 471.51 440.138ZM180.079 119.518H159.085V93.528H180.079V119.518ZM273.927 228.672C268.998 230.318 263.729 231.214 258.253 231.214C230.858 231.214 208.57 208.927 208.57 181.531C208.57 154.135 230.858 131.847 258.253 131.847C285.649 131.847 307.937 154.135 307.937 181.531C307.937 183.801 307.777 186.033 307.479 188.222C296.659 194.897 287.371 204.132 280.452 215.476C277.859 219.73 275.69 224.147 273.927 228.672ZM71.2295 17.672C71.2295 16.198 72.4286 15 73.9016 15H344.226C345.7 15 346.898 16.198 346.898 17.672V46.371H71.2295V17.672ZM40.4915 497C28.9495 497 19.5605 487.61 19.5605 476.068C19.5605 464.527 28.9505 455.137 40.4915 455.137C52.0325 455.137 61.4225 464.527 61.4225 476.068C61.4225 487.61 52.0325 497 40.4915 497ZM159.903 387.6C148.361 387.6 138.972 378.21 138.972 366.669C138.972 355.127 148.362 345.737 159.903 345.737C171.444 345.737 180.834 355.127 180.834 366.669C180.834 378.21 171.445 387.6 159.903 387.6ZM256.001 467.207C244.459 467.207 235.07 457.817 235.07 446.276C235.07 434.734 244.46 425.344 256.001 425.344C267.543 425.344 276.933 434.734 276.933 446.276C276.932 457.817 267.543 467.207 256.001 467.207ZM280.042 419.598C273.67 413.85 265.238 410.344 256.001 410.344C246.764 410.344 238.332 413.85 231.96 419.598L192.08 382.634C193.425 379.935 194.444 377.047 195.076 374.017H317.765L321.465 381.203L280.042 419.598ZM471.51 497C459.968 497 450.578 487.61 450.578 476.068C450.578 464.527 459.968 455.137 471.51 455.137C483.052 455.137 492.442 464.527 492.442 476.068C492.441 487.61 483.052 497 471.51 497Z" fill="black"/>
<path d="M351.219 210C322.425 210 299 233.425 299 262.219C299 291.013 322.425 314.439 351.219 314.439C380.013 314.439 403.439 291.013 403.439 262.219C403.439 233.425 380.013 210 351.219 210ZM351.219 299.439C330.697 299.439 314 282.743 314 262.219C314 241.697 330.696 225 351.219 225C371.742 225 388.439 241.696 388.439 262.219C388.439 282.742 371.743 299.439 351.219 299.439Z" fill="black"/>
<path d="M351.124 233C335.065 233 322 246.065 322 262.124C322 278.184 335.065 291.249 351.124 291.249C367.184 291.249 380.249 278.184 380.249 262.124C380.249 246.065 367.184 233 351.124 233ZM351.124 276.249C343.336 276.249 337 269.912 337 262.124C337 254.336 343.336 248 351.124 248C358.912 248 365.249 254.336 365.249 262.124C365.249 269.912 358.912 276.249 351.124 276.249Z" fill="black"/>
</g>
<defs>
<clipPath id="clip0_56_2318">
<rect width="512" height="512" fill="white"/>
</clipPath>
</defs>
</svg>
