<svg width="512" height="512" viewBox="0 0 512 512" fill="none" xmlns="http://www.w3.org/2000/svg">
<g clip-path="url(#clip0_56_2369)">
<path d="M291.441 0C285.918 0 281.441 4.47656 281.441 10C281.441 15.5234 285.918 20 291.441 20C402.031 20 492 109.973 492 220.559C492 226.082 496.48 230.559 502 230.559C507.523 230.559 512 226.082 512 220.559C512 98.9453 413.059 0 291.441 0Z" fill="white"/>
<path d="M441.844 230.562C447.367 230.562 451.844 226.082 451.844 220.562C451.844 132.113 379.887 60.1562 291.441 60.1562C285.918 60.1562 281.441 64.6367 281.441 70.1562C281.441 75.6797 285.918 80.1562 291.441 80.1562C368.859 80.1562 431.844 143.141 431.844 220.562C431.844 226.082 436.32 230.562 441.844 230.562Z" fill="white"/>
<path d="M371.676 220.562C371.676 226.082 376.152 230.562 381.676 230.562C387.199 230.562 391.676 226.082 391.676 220.562C391.676 165.293 346.711 120.328 291.441 120.328C285.918 120.328 281.441 124.805 281.441 130.324C281.441 135.848 285.918 140.324 291.441 140.324C335.684 140.324 371.676 176.316 371.676 220.562Z" fill="white"/>
<path d="M281.441 190.484C281.441 196.004 285.918 200.48 291.441 200.48C302.512 200.48 311.52 209.488 311.52 220.562C311.52 226.082 315.996 230.562 321.52 230.562C327.039 230.562 331.52 226.082 331.52 220.562C331.52 198.461 313.539 180.484 291.441 180.484C285.918 180.484 281.441 184.961 281.441 190.484Z" fill="white"/>
<path d="M187.434 324.68C187.434 330.203 182.957 334.68 177.434 334.68C171.91 334.68 167.434 330.203 167.434 324.68C167.434 319.16 171.91 314.68 177.434 314.68C182.957 314.68 187.434 319.16 187.434 324.68Z" fill="white"/>
<path d="M274.03 499.86C319.566 522.176 374.347 512.891 410.355 476.883L431.03 456.208C442.257 444.993 442.261 426.825 431.034 415.602L351.144 335.719C339.937 324.497 321.765 324.481 310.546 335.715L276.601 369.665C269.952 376.313 259.691 377.668 252.206 372.891C240.003 365.09 228.132 356.489 216.925 347.325C212.648 343.829 206.351 344.461 202.855 348.735C199.359 353.012 199.991 359.313 204.265 362.805C216.073 372.461 228.577 381.524 241.441 389.743C256.773 399.536 277.507 397.04 290.741 383.805L324.694 349.852C328.089 346.454 333.589 346.446 336.999 349.856L416.894 429.743C420.296 433.149 420.304 438.657 416.894 442.059L396.214 462.743C366.218 492.739 320.655 500.438 282.831 481.903C144.265 413.954 68.8742 306.211 30.0304 227.79C11.4484 190.286 19.1632 144.895 49.2296 114.836L69.4562 94.6138C72.8468 91.2153 78.3507 91.2036 81.757 94.6177L161.659 174.516C165.042 177.895 165.077 183.403 161.652 186.821L127.706 220.77C114.472 234.004 111.976 254.739 121.769 270.075C127.538 279.102 133.757 288.008 140.257 296.543C143.601 300.938 149.874 301.786 154.269 298.442C158.663 295.098 159.515 288.825 156.167 284.426C150.003 276.329 144.097 267.875 138.62 259.309C133.843 251.821 135.198 241.559 141.847 234.911L175.788 200.969C187.011 189.762 187.023 171.586 175.796 160.372L95.9015 80.481C84.6984 69.2583 66.5226 69.2427 55.3078 80.4771L35.089 100.696C-1.05162 136.825 -10.286 191.469 12.1085 236.668C52.3312 317.868 130.417 429.438 274.03 499.86Z" fill="white"/>
</g>
<defs>
<clipPath id="clip0_56_2369">
<rect width="512" height="512" fill="white"/>
</clipPath>
</defs>
</svg>
