<svg width="512" height="512" viewBox="0 0 512 512" fill="none" xmlns="http://www.w3.org/2000/svg">
<path d="M485.589 85.3132L396.508 48.2012C388.538 44.8782 379.483 44.8782 371.512 48.2012L282.431 85.3132C270.967 90.0912 263.549 100.943 263.549 112.939V272.64L263.579 434.811V434.821C264.211 450.912 278.004 463.772 294.929 463.772H473.091C490.427 463.772 504.471 450.29 504.471 433.657V112.938C504.472 100.943 497.053 90.0912 485.589 85.3132ZM382.496 137.351C370.854 137.351 361.416 127.913 361.416 116.271C361.416 104.629 370.854 95.1912 382.496 95.1912C394.138 95.1912 403.575 104.629 403.575 116.271C403.575 127.913 394.138 137.351 382.496 137.351Z" fill="#FF5023"/>
<path d="M333.849 434.819V434.809L333.845 415.649C339.58 406.981 342.93 396.603 342.93 385.453C342.93 379.601 342.009 373.959 340.305 368.665C347.123 359.521 351.163 348.188 351.163 335.93C351.163 330.128 350.259 324.537 348.583 319.284C355.467 310.114 359.548 298.729 359.548 286.406C359.548 266.852 349.259 249.665 333.819 239.944V112.937C333.819 100.941 341.237 90.0903 352.701 85.3113L419.145 57.6253L396.508 48.1993C388.538 44.8763 379.483 44.8763 371.512 48.1993L282.431 85.3113C270.967 90.0893 263.549 100.941 263.549 112.937V231.53V272.638V272.64L263.579 434.811V434.819V434.821C264.211 450.912 278.004 463.772 294.929 463.772H324.703C324.703 463.772 324.704 463.771 324.704 463.77H365.198C348.274 463.77 334.481 450.911 333.849 434.819Z" fill="#FF3501"/>
<path d="M79.9219 466.28H7.52687V253.591H79.9219V466.28Z" fill="#7ED63E"/>
<path d="M265.633 410.214H278.014C291.689 410.214 302.775 421.3 302.775 434.975C302.775 448.65 291.689 459.736 278.014 459.736H145.206C138.518 459.736 132.046 457.471 126.738 453.401C112.739 442.667 97.9259 440.394 79.9219 439.325V281.868C122.265 233.488 175.924 228.942 172.169 156.647C171.519 144.137 181.488 133.633 194.015 133.633C203.597 133.633 212.116 139.852 214.912 149.017C226.277 186.267 229.119 223.236 214.116 261.644H304.669C318.344 261.644 329.43 272.73 329.43 286.405C329.43 300.08 318.344 311.166 304.669 311.166H273.865H296.284C309.959 311.166 321.045 322.252 321.045 335.927C321.045 349.602 309.959 360.688 296.284 360.688H273.865H288.052C301.727 360.688 312.813 371.774 312.813 385.449C312.813 399.124 301.727 410.21 288.052 410.21H265.633V410.214Z" fill="#FFF3DE"/>
<path d="M265.633 410.214H278.014C291.689 410.214 302.775 421.3 302.775 434.975C302.775 448.65 291.689 459.736 278.014 459.736H145.206C138.518 459.736 132.046 457.471 126.738 453.401C112.739 442.667 97.9259 440.394 79.9219 439.325V281.868C122.265 233.488 175.924 228.942 172.169 156.647C171.519 144.137 181.488 133.633 194.015 133.633C203.597 133.633 212.116 139.852 214.912 149.017C226.277 186.267 229.119 223.236 214.116 261.644H304.669C318.344 261.644 329.43 272.73 329.43 286.405C329.43 300.08 318.344 311.166 304.669 311.166H273.865H296.284C309.959 311.166 321.045 322.252 321.045 335.927C321.045 349.602 309.959 360.688 296.284 360.688H273.865H288.052C301.727 360.688 312.813 371.774 312.813 385.449C312.813 399.124 301.727 410.21 288.052 410.21H265.633V410.214Z" fill="#FFB655"/>
<path d="M224.048 217.699C207.567 236.909 182.529 249.479 159.325 272.227C153.514 277.924 150.196 285.694 150.196 293.832V412.652C150.196 426.646 159.658 439.031 173.27 442.281C184.351 444.927 194.371 449.874 204.183 459.735H145.207C138.521 459.735 132.05 457.471 126.744 453.404C112.745 442.674 97.9287 440.398 79.9277 439.327V281.874C122.3 233.459 176.006 228.941 172.161 156.494C171.509 144.046 181.547 133.636 194.015 133.636C198.803 133.636 203.341 135.192 207.015 137.892C210.689 140.592 213.52 144.427 214.915 149.014C221.89 171.883 225.654 194.64 224.048 217.699Z" fill="#FFA733"/>
<path d="M488.506 78.371L399.404 41.25C389.63 37.179 378.42 37.18 368.647 41.251L325.867 59.07C322.043 60.664 320.234 65.054 321.827 68.878C323.42 72.702 327.81 74.512 331.635 72.918L374.415 55.098C380.52 52.554 387.527 52.553 393.637 55.097L482.734 92.216C491.4 95.831 497.001 103.96 497.001 112.923V433.673C497.001 446.146 486.288 456.293 473.121 456.293H460.961C456.818 456.293 453.461 459.65 453.461 463.793C453.461 467.936 456.818 471.293 460.961 471.293H473.121C494.559 471.293 512.001 454.417 512.001 433.673V112.923C512.001 97.887 502.779 84.325 488.506 78.371Z" fill="black"/>
<path d="M428.27 456.294H302.25C307.439 450.396 310.28 442.913 310.28 434.994C310.28 427.091 307.419 419.848 302.685 414.232C305.67 412.709 308.434 410.716 310.874 408.277C316.966 402.184 320.32 394.083 320.32 385.464C320.32 377.248 317.228 369.744 312.153 364.042C314.666 362.619 317.006 360.855 319.102 358.757C325.194 352.666 328.549 344.565 328.549 335.944C328.549 327.752 325.476 320.267 320.43 314.57C322.985 313.136 325.365 311.35 327.499 309.221C333.587 303.119 336.939 295.02 336.939 286.413C336.939 268.619 322.467 254.143 304.678 254.143H271.048V112.923C271.048 103.959 276.649 95.8297 285.311 92.2167L298.952 86.5367C302.776 84.9447 304.585 80.5547 302.993 76.7297C301.4 72.9057 297.01 71.0937 293.186 72.6887L279.54 78.3707C265.269 84.3237 256.048 97.8867 256.048 112.923V254.144H224.711C235.146 221.168 234.258 186.753 222.08 146.81C220.23 140.761 216.55 135.58 211.435 131.827C206.35 128.097 200.324 126.124 194.007 126.124C185.869 126.124 178.302 129.374 172.698 135.275C167.097 141.175 164.245 148.899 164.667 157.023C167.012 202.12 146.21 217.642 117.419 239.127C107.94 246.2 97.58 253.936 87.398 263.423V253.593C87.398 249.45 84.041 246.093 79.898 246.093H7.5C3.357 246.093 0 249.45 0 253.593V466.303C0 470.446 3.357 473.803 7.5 473.803H79.9C84.043 473.803 87.4 470.446 87.4 466.303V447.435C101.645 448.79 112.049 451.629 122.157 459.376C128.793 464.462 136.973 467.263 145.19 467.263H277.461C282.865 469.897 288.856 471.293 294.929 471.293H428.269C432.412 471.293 435.769 467.936 435.769 463.793C435.769 459.65 432.412 456.294 428.27 456.294ZM131.282 447.47C117.14 436.633 102.026 433.622 87.4 432.359V344.784C87.4 340.641 84.043 337.284 79.9 337.284C75.757 337.284 72.4 340.641 72.4 344.784V458.804H15V261.094H72.4V312.105C72.4 316.248 75.757 319.605 79.9 319.605C84.043 319.605 87.4 316.248 87.4 312.105V284.73C99.946 270.885 113.38 260.86 126.392 251.15C155.201 229.653 182.411 209.347 179.65 156.245C179.443 152.27 180.838 148.491 183.58 145.604C186.322 142.715 190.026 141.125 194.01 141.125C197.113 141.125 200.07 142.092 202.563 143.922C205.052 145.748 206.841 148.264 207.737 151.193C220.14 191.878 219.946 226.108 207.126 258.917C206.224 261.225 206.521 263.829 207.918 265.876C209.315 267.923 211.633 269.147 214.111 269.147H304.68C314.198 269.147 321.941 276.894 321.941 286.417C321.941 291.022 320.144 295.359 316.893 298.618C313.623 301.88 309.287 303.677 304.68 303.677H273.87C269.727 303.677 266.37 307.034 266.37 311.177C266.37 315.32 269.727 318.677 273.87 318.677H296.29C305.807 318.677 313.55 326.424 313.55 335.948C313.55 340.561 311.756 344.896 308.496 348.155C305.238 351.414 300.903 353.208 296.29 353.208H273.87C269.727 353.208 266.37 356.565 266.37 360.708C266.37 364.851 269.727 368.208 273.87 368.208H288.059C297.577 368.208 305.32 375.951 305.32 385.468C305.32 390.08 303.525 394.416 300.267 397.675C297.001 400.941 292.665 402.738 288.059 402.738H278.019H265.639C261.496 402.738 258.139 406.095 258.139 410.238C258.139 414.381 261.496 417.738 265.639 417.738H278.019C287.537 417.738 295.28 425.481 295.28 434.998C295.28 439.61 293.483 443.95 290.233 447.208C287.187 450.247 282.375 452.186 278.774 452.25C278.525 452.254 145.19 452.268 145.19 452.268C140.254 452.263 135.314 450.561 131.282 447.47Z" fill="black"/>
<path d="M411.092 116.255C411.092 100.495 398.27 87.6729 382.51 87.6729C366.75 87.6729 353.928 100.495 353.928 116.255C353.928 132.015 366.75 144.837 382.51 144.837C398.27 144.837 411.092 132.015 411.092 116.255ZM368.928 116.255C368.928 108.766 375.021 102.673 382.51 102.673C389.999 102.673 396.092 108.766 396.092 116.255C396.092 123.744 389.999 129.837 382.51 129.837C375.021 129.837 368.928 123.745 368.928 116.255Z" fill="black"/>
<path d="M387.196 372.165H373.745C366.66 372.165 360.896 366.4 360.896 359.315C360.896 355.172 357.539 351.815 353.396 351.815C349.253 351.815 345.896 355.172 345.896 359.315C345.896 374.412 357.972 386.732 372.97 387.145V403.743C372.97 407.886 376.327 411.243 380.47 411.243C384.613 411.243 387.97 407.886 387.97 403.743V387.145C402.969 386.732 415.045 374.412 415.045 359.315V348.932C415.045 339.299 408.89 330.828 399.728 327.85L365.848 316.845C362.886 315.882 360.896 313.144 360.896 310.03V295.163C360.896 289.409 365.577 284.727 371.331 284.727H389.611C395.365 284.727 400.046 289.409 400.046 295.163C400.046 299.306 403.403 302.663 407.546 302.663C411.689 302.663 415.046 299.306 415.046 295.163C415.046 281.138 403.636 269.727 389.611 269.727H387.97V253.149C387.97 249.006 384.613 245.649 380.47 245.649C376.327 245.649 372.97 249.006 372.97 253.149V269.727H371.33C357.306 269.727 345.895 281.137 345.895 295.163V310.03C345.895 319.663 352.05 328.134 361.212 331.111L395.091 342.116C398.054 343.079 400.044 345.818 400.044 348.932V359.315C400.046 366.4 394.281 372.165 387.196 372.165Z" fill="black"/>
</svg>
