<svg width="512" height="512" viewBox="0 0 512 512" fill="none" xmlns="http://www.w3.org/2000/svg">
<g clip-path="url(#clip0_56_1940)">
<path d="M474.697 464.856H37.303C20.843 464.856 7.5 451.513 7.5 435.053V76.9466C7.5 60.4866 20.843 47.1436 37.303 47.1436H474.697C491.157 47.1436 504.5 60.4866 504.5 76.9466V435.053C504.5 451.513 491.157 464.856 474.697 464.856Z" fill="#FFB655"/>
<path d="M474.696 47.1436H409.363C425.823 47.1436 439.166 60.4866 439.166 76.9466V435.053C439.166 451.513 425.823 464.856 409.363 464.856H474.696C491.156 464.856 504.499 451.513 504.499 435.053V76.9466C504.499 60.4866 491.156 47.1436 474.696 47.1436Z" fill="#FFA733"/>
<path d="M474.697 47.1436H37.303C20.843 47.1436 7.5 60.4866 7.5 76.9466V130.5H504.5V76.9466C504.5 60.4866 491.157 47.1436 474.697 47.1436Z" fill="#4FC123"/>
<path d="M439.166 76.9466V130.5H504.499V76.9466C504.499 60.4866 491.156 47.1436 474.696 47.1436H409.363C425.822 47.1436 439.166 60.4866 439.166 76.9466Z" fill="#47A920"/>
<path d="M158.176 316.019C153.799 315.178 150.419 311.311 150.419 306.627V280.357H113.853V306.627C113.853 311.312 110.473 315.179 106.096 316.019C79.5025 321.137 50.1445 340.039 50.1445 373.44V392.069C50.1445 396.295 53.5705 399.72 57.7955 399.72H206.476C210.702 399.72 214.127 396.294 214.127 392.069V373.44C214.127 340.038 184.769 321.136 158.176 316.019Z" fill="#FFD422"/>
<path d="M158.175 316.019C153.798 315.179 150.418 311.311 150.418 306.627V280.357H113.852V306.627C113.852 306.773 113.84 306.921 113.817 307.069C112.565 315.1 115.341 323.208 122.178 327.603C137.298 337.322 148.793 352.541 148.793 373.441V392.07C148.793 396.296 145.367 399.721 141.142 399.721H206.475C210.701 399.721 214.126 396.295 214.126 392.07V373.441C214.126 340.038 184.768 321.136 158.175 316.019Z" fill="#EEBF00"/>
<path d="M176.918 219.459C176.918 213.367 171.979 208.428 165.887 208.428H165.515C163.474 208.428 161.781 206.786 161.789 204.745C161.812 198.633 156.864 193.671 150.758 193.671H115.647C100.021 193.671 87.3535 206.338 87.3535 221.964L87.3835 261.837C87.3985 265.463 90.3145 268.39 93.8965 268.375C95.2505 268.369 96.3655 269.406 96.4895 270.754C97.2845 279.408 101.188 287.566 107.758 293.244C113.532 298.234 121.638 302.576 132.321 302.651C143.004 302.485 151.073 298.073 156.805 293.035C163.328 287.301 167.163 279.109 167.885 270.449C167.998 269.1 169.104 268.054 170.457 268.049C174.039 268.034 176.931 265.082 176.916 261.456L176.918 219.459Z" fill="#FFD422"/>
<path d="M452.967 232.825H257.411C252.502 232.825 248.523 228.846 248.523 223.937V202.558C248.523 197.649 252.502 193.67 257.411 193.67H452.968C457.877 193.67 461.856 197.649 461.856 202.558V223.937C461.856 228.846 457.876 232.825 452.967 232.825Z" fill="#FF5023"/>
<path d="M452.968 193.67H439.166V232.826H452.968C457.877 232.826 461.856 228.847 461.856 223.938V202.559C461.856 197.649 457.876 193.67 452.968 193.67Z" fill="#FF5023"/>
<path d="M65.0649 96.2987C69.1943 96.2987 72.5419 92.9512 72.5419 88.8217C72.5419 84.6923 69.1943 81.3447 65.0649 81.3447C60.9355 81.3447 57.5879 84.6923 57.5879 88.8217C57.5879 92.9512 60.9355 96.2987 65.0649 96.2987Z" fill="black"/>
<path d="M100.305 96.2987C104.435 96.2987 107.782 92.9512 107.782 88.8217C107.782 84.6923 104.435 81.3447 100.305 81.3447C96.1757 81.3447 92.8281 84.6923 92.8281 88.8217C92.8281 92.9512 96.1757 96.2987 100.305 96.2987Z" fill="black"/>
<path d="M135.545 96.2987C139.675 96.2987 143.022 92.9512 143.022 88.8217C143.022 84.6923 139.675 81.3447 135.545 81.3447C131.416 81.3447 128.068 84.6923 128.068 88.8217C128.068 92.9512 131.416 96.2987 135.545 96.2987Z" fill="black"/>
<path d="M461.856 273.48H248.523C244.38 273.48 241.023 276.838 241.023 280.98C241.023 285.122 244.38 288.48 248.523 288.48H461.856C465.999 288.48 469.356 285.122 469.356 280.98C469.356 276.838 465.999 273.48 461.856 273.48Z" fill="black"/>
<path d="M469.356 320.136C469.356 315.994 465.999 312.636 461.856 312.636H248.523C244.38 312.636 241.023 315.994 241.023 320.136C241.023 324.278 244.38 327.636 248.523 327.636H461.856C465.999 327.636 469.356 324.278 469.356 320.136Z" fill="black"/>
<path d="M248.523 351.792C244.38 351.792 241.023 355.15 241.023 359.292C241.023 363.434 244.38 366.792 248.523 366.792H355.19C359.333 366.792 362.69 363.434 362.69 359.292C362.69 355.15 359.333 351.792 355.19 351.792H248.523Z" fill="black"/>
<path d="M454.412 96.3213C458.555 96.3213 461.912 92.9633 461.912 88.8213C461.912 84.6793 458.555 81.3213 454.412 81.3213H410.5C406.357 81.3213 403 84.6793 403 88.8213C403 92.9633 406.357 96.3213 410.5 96.3213H454.412Z" fill="black"/>
<path d="M474.697 39.6436H37.303C16.734 39.6436 0 56.3776 0 76.9466V435.053C0 455.622 16.734 472.356 37.303 472.356H474.698C495.266 472.356 512.001 455.622 512.001 435.053V337.667C512.001 333.525 508.644 330.167 504.501 330.167C500.358 330.167 497.001 333.525 497.001 337.667V435.053C497.001 447.351 486.996 457.356 474.698 457.356H37.303C25.005 457.356 15 447.351 15 435.053V138H47.534C51.677 138 55.034 134.642 55.034 130.5C55.034 126.358 51.677 123 47.534 123H15V76.9466C15 64.6486 25.005 54.6436 37.303 54.6436H474.698C486.996 54.6436 497.001 64.6486 497.001 76.9466V123H82.597C78.454 123 75.097 126.358 75.097 130.5C75.097 134.642 78.454 138 82.597 138H497V302.605C497 306.747 500.357 310.105 504.5 310.105C508.643 310.105 512 306.747 512 302.605V76.9466C512 56.3776 495.266 39.6436 474.697 39.6436Z" fill="black"/>
<path d="M469.356 202.558C469.356 193.521 462.004 186.17 452.968 186.17H257.411C248.375 186.17 241.023 193.522 241.023 202.558V223.937C241.023 232.974 248.375 240.325 257.411 240.325H452.969C462.005 240.325 469.357 232.973 469.357 223.937V202.558H469.356ZM454.356 223.937C454.356 224.703 453.734 225.325 452.968 225.325H257.411C256.645 225.325 256.023 224.702 256.023 223.937V202.558C256.023 201.792 256.645 201.17 257.411 201.17H452.969C453.735 201.17 454.357 201.793 454.357 202.558V223.937H454.356Z" fill="black"/>
<path d="M104.679 308.655C73.8005 314.597 42.6445 336.934 42.6445 373.441V392.07C42.6445 400.424 49.4415 407.221 57.7955 407.221H206.476C214.83 407.221 221.627 400.424 221.627 392.07V373.441C221.627 336.934 190.471 314.597 159.59 308.654C158.78 308.498 157.919 307.735 157.919 306.627V301.701C159.234 300.761 160.517 299.755 161.757 298.665C168.707 292.555 173.288 284.19 174.886 274.815C180.442 272.934 184.444 267.638 184.418 261.453V219.458C184.418 210.286 177.72 202.648 168.957 201.181C167.357 192.808 159.966 186.169 150.758 186.169H115.647C95.9105 186.169 79.8535 202.226 79.8535 221.967L79.8835 261.865C79.8995 265.605 81.3575 269.12 83.9895 271.763C85.5715 273.35 87.4635 274.51 89.5275 275.185C91.2045 284.544 95.8545 292.867 102.854 298.915C103.988 299.895 105.157 300.809 106.352 301.665V306.626C106.353 307.735 105.491 308.499 104.679 308.655ZM94.8825 260.919L94.8535 221.962C94.8535 210.497 104.182 201.17 115.647 201.17H150.758C152.699 201.17 154.297 202.747 154.289 204.715C154.277 207.693 155.433 210.499 157.542 212.616C161.198 216.285 165.733 215.898 165.887 215.927C167.834 215.927 169.418 217.511 169.418 219.458V260.6C164.615 261.089 160.822 264.897 160.412 269.824C159.124 285.255 145.935 294.901 132.289 295.149C118.756 295.018 105.388 285.638 103.959 270.066C103.506 265.145 99.6845 261.371 94.8825 260.919ZM143.061 308.7C143.95 315.963 149.429 321.977 156.759 323.384C193.567 330.467 206.627 354.777 206.627 373.441V392.07C206.627 392.153 206.559 392.221 206.476 392.221H57.7955C57.7125 392.221 57.6445 392.153 57.6445 392.07V373.441C57.6445 354.776 70.7055 330.468 107.51 323.385C114.848 321.976 120.331 315.953 121.213 308.683C128.967 310.717 135.969 310.55 143.061 308.7Z" fill="black"/>
</g>
<defs>
<clipPath id="clip0_56_1940">
<rect width="512" height="512" fill="white"/>
</clipPath>
</defs>
</svg>
