<svg width="512" height="512" viewBox="0 0 512 512" fill="none" xmlns="http://www.w3.org/2000/svg">
<path d="M344.062 68.001H275.646V107.478H344.062V68.001Z" fill="#D5F5FB"/>
<path d="M273.854 68.0007H345.855C359.11 68.0007 369.855 57.2556 369.855 44.0004C369.855 30.7452 359.11 20 345.855 20H273.854C260.599 20 249.854 30.7452 249.854 44.0004C249.854 57.2556 260.599 68.0007 273.854 68.0007Z" fill="#7ED63E"/>
<path d="M310.007 491.483C416.047 491.483 502.01 405.521 502.01 299.48C502.01 193.44 416.047 107.478 310.007 107.478C203.967 107.478 118.004 193.44 118.004 299.48C118.004 405.521 203.967 491.483 310.007 491.483Z" fill="#FF5023"/>
<path d="M310.008 444.611C390.162 444.611 455.139 379.634 455.139 299.48C455.139 219.326 390.162 154.349 310.008 154.349C229.854 154.349 164.877 219.326 164.877 299.48C164.877 379.634 229.854 444.611 310.008 444.611Z" fill="#FFB655"/>
<path d="M310.006 320.554C321.644 320.554 331.08 311.119 331.08 299.48C331.08 287.841 321.644 278.406 310.006 278.406C298.367 278.406 288.932 287.841 288.932 299.48C288.932 311.119 298.367 320.554 310.006 320.554Z" fill="#FFD422"/>
<path d="M511.013 279.388C506.416 233.149 485.758 189.558 452.844 156.642C424.715 128.515 390.287 110.44 354.06 102.402V76.994C368.857 73.3129 379.855 59.9198 379.855 44.0005C379.855 25.2522 364.602 10 345.854 10H273.853C255.105 10 239.853 25.2522 239.853 44.0005C239.853 59.9188 250.851 73.3119 265.646 76.994V102.473C229.53 110.545 195.216 128.595 167.167 156.643C161.029 162.781 155.369 169.22 150.188 175.913C149.937 175.893 149.686 175.875 149.43 175.875H78.1682C72.6461 175.875 68.168 180.352 68.168 185.875C68.168 191.398 72.6461 195.875 78.1682 195.875H136.581C129.249 208.15 123.337 221.041 118.837 234.311H10.0002C4.47807 234.311 0 238.788 0 244.312C0 249.835 4.47807 254.312 10.0002 254.312H113.186C110.304 266.963 108.65 279.838 108.223 292.749H64.001C58.4789 292.749 54.0008 297.226 54.0008 302.749C54.0008 308.272 58.4789 312.75 64.001 312.75H108.542C109.386 325.694 111.467 338.57 114.786 351.187H50.0008C44.4787 351.187 40.0006 355.664 40.0006 361.187C40.0006 366.71 44.4787 371.187 50.0008 371.187H121.168C130.978 397.139 146.309 421.462 167.167 442.32C200.114 475.267 243.751 495.929 290.037 500.502C296.643 501.154 303.255 501.477 309.857 501.477C348.879 501.477 387.406 490.184 420.096 468.896C424.724 465.882 426.033 459.687 423.019 455.059C420.005 450.431 413.81 449.122 409.182 452.136C337.624 498.733 241.79 488.658 181.31 428.178C110.347 357.215 110.347 241.75 181.31 170.786C252.272 99.8244 367.737 99.8244 438.701 170.786C499.1 231.187 509.231 326.94 462.787 398.463C459.779 403.095 461.096 409.289 465.727 412.296C470.361 415.304 476.553 413.987 479.56 409.355C504.375 371.139 515.545 324.984 511.013 279.388ZM259.853 44.0015C259.853 36.2814 266.133 30.0013 273.853 30.0013H345.854C353.574 30.0013 359.854 36.2814 359.854 44.0015C359.854 51.7216 353.574 58.0017 345.854 58.0017H344.06H275.646H273.853C266.133 58.0017 259.853 51.7206 259.853 44.0015ZM285.646 99.0353V78.002H334.06V98.9993C317.984 97.0873 301.72 97.0993 285.646 99.0353Z" fill="black"/>
<path d="M445.775 425.244C443.135 425.244 440.565 426.314 438.706 428.174C436.836 430.034 435.775 432.614 435.775 435.244C435.775 437.874 436.836 440.454 438.706 442.314C440.565 444.184 443.136 445.244 445.775 445.244C448.405 445.244 450.975 444.184 452.845 442.314C454.705 440.454 455.775 437.874 455.775 435.244C455.775 432.614 454.706 430.034 452.845 428.174C450.975 426.314 448.404 425.244 445.775 425.244Z" fill="black"/>
<path d="M310.006 144.349C224.467 144.349 154.875 213.94 154.875 299.48C154.875 385.02 224.467 454.611 310.006 454.611C395.546 454.611 465.138 385.02 465.138 299.48C465.138 213.94 395.546 144.349 310.006 144.349ZM310.006 434.611C235.494 434.611 174.875 373.991 174.875 299.48C174.875 224.969 235.494 164.349 310.006 164.349C384.518 164.349 445.137 224.969 445.137 299.48C445.137 373.991 384.518 434.611 310.006 434.611Z" fill="#FFA733"/>
<path d="M373.264 222.081L323.733 271.611C319.591 269.563 314.932 268.406 310.007 268.406C305.08 268.406 300.422 269.563 296.28 271.611L274.113 249.444C270.207 245.538 263.877 245.538 259.97 249.444C256.065 253.349 256.065 259.681 259.97 263.586L282.137 285.753C280.088 289.895 278.932 294.554 278.932 299.479C278.932 316.614 292.871 330.554 310.007 330.554C327.142 330.554 341.081 316.614 341.081 299.479C341.081 294.554 339.924 289.895 337.876 285.753L385.953 237.676L387.406 236.223C391.311 232.318 391.311 225.986 387.406 222.081C383.501 218.176 377.171 218.176 373.264 222.081ZM310.007 310.554C303.9 310.554 298.932 305.586 298.932 299.48C298.932 293.374 303.9 288.406 310.007 288.406C316.113 288.406 321.081 293.374 321.081 299.48C321.081 305.586 316.113 310.554 310.007 310.554Z" fill="black"/>
<path d="M416.925 289.603H407.66C402.138 289.603 397.66 294.08 397.66 299.603C397.66 305.126 402.138 309.603 407.66 309.603H416.925C422.447 309.603 426.925 305.126 426.925 299.603C426.925 294.08 422.447 289.603 416.925 289.603Z" fill="black"/>
<path d="M212.348 289.358H203.084C197.562 289.358 193.084 293.835 193.084 299.358C193.084 304.881 197.562 309.358 203.084 309.358H212.348C217.87 309.358 222.348 304.881 222.348 299.358C222.348 293.835 217.87 289.358 212.348 289.358Z" fill="black"/>
<path d="M310.127 211.824C315.649 211.824 320.127 207.347 320.127 201.824V192.56C320.127 187.037 315.649 182.56 310.127 182.56C304.605 182.56 300.127 187.037 300.127 192.56V201.824C300.127 207.347 304.605 211.824 310.127 211.824Z" fill="black"/>
<path d="M309.885 387.137C304.363 387.137 299.885 391.614 299.885 397.137V406.401C299.885 411.924 304.363 416.401 309.885 416.401C315.407 416.401 319.885 411.924 319.885 406.401V397.137C319.885 391.614 315.407 387.137 309.885 387.137Z" fill="black"/>
<path d="M9.99999 351.183C7.37 351.183 4.79 352.253 2.93 354.113C1.07 355.973 0 358.553 0 361.183C0 363.823 1.069 366.393 2.93 368.253C4.791 370.113 7.37 371.183 9.99999 371.183C12.63 371.183 15.21 370.113 17.069 368.253C18.929 366.393 20 363.813 20 361.183C20 358.553 18.93 355.973 17.069 354.113C15.21 352.253 12.63 351.183 9.99999 351.183Z" fill="black"/>
</svg>
